<svg width="21" height="24" viewBox="0 0 21 24" fill="none" xmlns="http://www.w3.org/2000/svg">
<path fill-rule="evenodd" clip-rule="evenodd" d="M10.2858 5.96834e-09C10.6241 -2.82207e-05 10.9549 0.100065 11.2365 0.287674C11.5181 0.475283 11.7378 0.742017 11.8681 1.05428L18.282 16.4485L18.312 16.5205L20.4394 21.6265C20.6062 22.0446 20.6018 22.5115 20.4273 22.9264C20.2527 23.3413 19.9219 23.6709 19.5064 23.844C19.0908 24.0171 18.6239 24.0198 18.2064 23.8516C17.7889 23.6833 17.4543 23.3576 17.2749 22.9447L15.5718 18.857H4.99982L3.29668 22.9456C3.12164 23.3652 2.78707 23.6982 2.36656 23.8711C1.94605 24.0441 1.47406 24.0429 1.05441 23.8679C0.634766 23.6928 0.301843 23.3582 0.128881 22.9377C-0.0440798 22.5172 -0.0429104 22.0452 0.132131 21.6256L2.25955 16.5205C2.26899 16.496 2.27899 16.4717 2.28955 16.4476L8.70351 1.05514C8.83364 0.742714 9.05334 0.475799 9.33492 0.288031C9.61649 0.100262 9.94735 4.23093e-05 10.2858 5.96834e-09ZM6.42867 15.4285H14.1429L10.2858 6.1714L6.42867 15.4285Z" fill="#4AD189"/>
</svg>
