<svg xmlns="http://www.w3.org/2000/svg" viewBox="0 0 494.02 170.01"><defs><style>.cls-1{fill:#e8d6e0;}</style></defs><g id="Layer_2" data-name="Layer 2"><g id="Graphic_Element" data-name="Graphic Element"><path class="cls-1" d="M491.84,161.82a3.59,3.59,0,0,0-.89-2.28c-4.85-5.78-10.4-11-15.33-16.76s-9.78-11.66-14.66-17.51c-9.12-10.94-18.52-22.61-29.83-31.39,2.55-3,4.66-6.41,6.92-9.62l7-9.89q5.57-7.89,11.11-15.8c6-8.6,11.86-17.27,17.37-26.19q5.12-8.28,9.8-16.78a1.27,1.27,0,0,0,.17-.7c1.91-.49,1.73-3.77-.52-3.73q-44.13.83-88.28,1c-28.08.15-56.16.1-84.24.05q-42.93-.09-85.87,0-46.59.13-93.17.8c-35.38.53-70.76,1.38-106.12,2.8-4.85.19-9.68.38-14.52.82a.82.82,0,0,0,0,1.63H11C11,38.19,12.66,58.06,12.64,78c0,19.71.14,39.42.24,59.13,0,4.69-.67,9.53-.23,14.2.46,5,1.82,9.84,2.07,14.91a1.72,1.72,0,0,0,.6,1.29c-.57,0-1.13.09-1.69.15a1.09,1.09,0,0,0,0,2.17c9.56.42,19.18-.07,28.76-.22,9.38-.16,18.75-.41,28.13-.6,17.57-.36,35.14-.63,52.71-.92q47.87-.79,95.73-1,43.62-.18,87.23,0l85.27.15q44.32.07,88.66-.27c3.83,0,7.66-.07,11.49-.12C494.76,166.82,494.8,162,491.84,161.82Z"/><path d="M483,150.59a3.49,3.49,0,0,0-.88-2.27c-4.83-5.78-10.37-11-15.28-16.76s-9.74-11.66-14.6-17.5c-9.08-10.94-18.44-22.61-29.74-31.4,2.58-3,4.72-6.35,7-9.51l7.07-9.78q5.65-7.82,11.27-15.63c6.09-8.5,12-17.09,17.64-25.91q5.19-8.19,10-16.61a1.24,1.24,0,0,0,.17-.69c1.93-.48,1.77-3.73-.49-3.71q-44.34.52-88.68.41C358.23,1.18,330,.93,301.82.69Q258.7.32,215.57.08,168.77-.11,122,.23C86.44.51,50.89,1.11,15.37,2.28,10.49,2.44,5.64,2.59.78,3a.81.81,0,0,0,0,1.61H1C.92,24.42,2.4,44.18,2.25,64c-.16,19.58-.14,39.17-.18,58.75,0,4.67-.74,9.47-.33,14.12.43,5,1.76,9.78,2,14.82a1.76,1.76,0,0,0,.6,1.29l-1.7.14a1.08,1.08,0,0,0,0,2.16c9.61.48,19.27.06,28.89,0,9.42-.09,18.85-.27,28.27-.4,17.65-.24,35.3-.38,53-.55q48.08-.47,96.16-.3,43.82.1,87.62.55,42.83.39,85.65.75,44.52.38,89.05.33l11.55,0C485.89,155.58,486,150.82,483,150.59Zm-90.12.47c-28.59,0-57.17-.24-85.76-.46q-43.5-.34-87-.58-47.43-.18-94.84.16c-36,.28-72.06.87-108.06,2.11-3.44.12-6.85.24-10.27.47a1.68,1.68,0,0,0,.36-1.09A62.87,62.87,0,0,0,5.9,138.91c-.82-4.07-.2-8.07-.15-12.18.13-9.76-.11-19.55-.18-29.32C5.43,77.7,5.54,58,4.5,38.26,3.91,27.07,3.23,15.88,3.16,4.67c18.06.44,36.22-.45,54.27-.72q26-.39,52-.61,47.46-.48,94.91-.31,43.44.14,86.86.59,42.26.41,84.52.76,43.92.36,87.86.26l9.31,0c-12.42,18.25-25.34,36-38.72,53.61l-7.6,10c-3,4-6.49,7.85-9,12.17a2.54,2.54,0,0,0,.46,3.1,2,2,0,0,0,.54,1.51c5.19,5.48,10.58,10.74,15.56,16.43s9.56,11.4,14.2,17.22,9.25,11.69,14,17.45c4,4.84,8,10.13,12.53,14.59Q433.88,151.1,392.87,151.06Z"/></g></g></svg>