<svg width="49" height="56" viewBox="0 0 49 56" fill="none" xmlns="http://www.w3.org/2000/svg">
<path d="M48.3051 24.1572C48.3051 10.4968 36.9949 -0.519639 23.1876 0.0189419C10.7513 0.459599 0.616183 10.5458 0.02864 22.9821C-0.558903 35.2226 7.96047 45.5535 19.4176 47.8547L23.5793 54.5625C24.02 55.2969 25.0482 55.3459 25.5378 54.6604L31.1195 47.3161C41.0587 44.3295 48.3051 35.0757 48.3051 24.1572Z" fill="#3F5664"/>
<path d="M44.8288 24.1572C44.8288 12.4553 35.1343 3.05463 23.3835 3.49529C12.7098 3.93595 3.99457 12.5043 3.50495 23.178C3.01533 33.6069 10.3107 42.469 20.0541 44.4274L23.5793 50.156C23.971 50.7925 24.8523 50.7925 25.293 50.2539L30.0423 43.9868C38.6106 41.3918 44.8288 33.5089 44.8288 24.1572Z" fill="#49C474"/>
<path d="M24.1669 34.3412C29.8725 34.3412 34.4979 29.7159 34.4979 24.0103C34.4979 18.3047 29.8725 13.6793 24.1669 13.6793C18.4613 13.6793 13.8359 18.3047 13.8359 24.0103C13.8359 29.7159 18.4613 34.3412 24.1669 34.3412Z" fill="#405664"/>
<path d="M24.1669 31.4036C28.2501 31.4036 31.5602 28.0935 31.5602 24.0103C31.5602 19.9271 28.2501 16.6171 24.1669 16.6171C20.0838 16.6171 16.7737 19.9271 16.7737 24.0103C16.7737 28.0935 20.0838 31.4036 24.1669 31.4036Z" fill="white"/>
</svg>
