<svg width="55" height="55" viewBox="0 0 55 55" fill="none" xmlns="http://www.w3.org/2000/svg">
<path d="M27.4284 54.8568C42.5767 54.8568 54.8568 42.5767 54.8568 27.4284C54.8568 12.2801 42.5767 0 27.4284 0C12.2801 0 0 12.2801 0 27.4284C0 42.5767 12.2801 54.8568 27.4284 54.8568Z" fill="#3F5664"/>
<path d="M27.4283 50.8592C40.3687 50.8592 50.859 40.3689 50.859 27.4284C50.859 14.488 40.3687 3.99768 27.4283 3.99768C14.4879 3.99768 3.99756 14.488 3.99756 27.4284C3.99756 40.3689 14.4879 50.8592 27.4283 50.8592Z" fill="#E9FFFA"/>
<path d="M27.4285 46.917C38.1918 46.917 46.9171 38.1917 46.9171 27.4284C46.9171 16.6652 38.1918 7.93982 27.4285 7.93982C16.6653 7.93982 7.93994 16.6652 7.93994 27.4284C7.93994 38.1917 16.6653 46.917 27.4285 46.917Z" fill="#49C474"/>
<path d="M38.533 25.374H36.4232L38.1444 21.2653C38.311 20.8212 38.1444 20.3214 37.7002 20.1549C37.256 19.9883 36.7563 20.1549 36.5897 20.5991L34.5909 25.374H29.7604L28.0947 20.3214C28.0947 20.2659 28.0392 20.2104 27.9837 20.1549C27.9281 20.0994 27.9281 20.0438 27.8726 19.9883C27.7616 19.8773 27.6505 19.7662 27.5395 19.7662C27.0953 19.6552 26.6511 19.8773 26.4845 20.3214L24.9299 25.4296H20.2659L18.2671 20.6546C18.1006 20.2104 17.6008 20.0438 17.1567 20.2104C16.7125 20.377 16.5459 20.8767 16.7125 21.3209L18.4337 25.4296H16.3238C15.8796 25.4296 15.491 25.8182 15.491 26.2624C15.491 26.7066 15.8796 27.0953 16.3238 27.0953H19.1555L22.2648 34.5909C22.2648 34.6464 22.3203 34.6464 22.3203 34.7019C22.3203 34.7574 22.3758 34.813 22.4314 34.8685C22.4314 34.8685 22.4313 34.8685 22.4869 34.924C22.5979 35.0351 22.709 35.1461 22.8755 35.2016C23.3197 35.3127 23.7639 35.0906 23.9305 34.6464L26.2624 27.1508H28.7055L31.1485 34.5909C31.315 35.0351 31.7592 35.2572 32.2034 35.1461C32.3145 35.0906 32.4255 35.0351 32.5366 34.924L32.5921 34.8685C32.6476 34.813 32.7031 34.7574 32.7031 34.7019C32.7031 34.7019 32.7031 34.6464 32.7586 34.6464L35.8679 27.1508H38.6996C39.1438 27.1508 39.5325 26.7621 39.5325 26.3179C39.3659 25.7627 38.9772 25.374 38.533 25.374ZM22.9311 31.8702L20.9322 27.0953H24.4302L22.9311 31.8702ZM26.6511 25.374L27.3174 23.2086L28.0392 25.374H26.6511ZM31.9258 31.8702L30.3156 27.0953H33.8691L31.9258 31.8702Z" fill="white"/>
<path d="M23.042 35.4237C22.9309 35.4237 22.8199 35.4237 22.7089 35.3682C22.5423 35.3127 22.3757 35.2017 22.2091 35.0351L22.1536 34.9796C22.0981 34.924 22.0426 34.8685 22.0426 34.813C22.0426 34.813 21.9871 34.7575 21.9871 34.7019L18.9333 27.3729H16.2682C15.6574 27.3729 15.1577 26.8732 15.1577 26.2624C15.1577 25.6517 15.6574 25.152 16.2682 25.152H17.9894L16.4347 21.4319C16.2127 20.8767 16.4903 20.2104 17.0455 19.9883C17.3231 19.8773 17.6007 19.8773 17.8784 19.9883C18.156 20.0994 18.3781 20.3215 18.4891 20.5991L20.4324 25.2075H24.7077L26.2068 20.3215C26.3179 20.0439 26.4844 19.8218 26.762 19.6552C27.0397 19.4886 27.3173 19.4886 27.5949 19.5997C27.7615 19.6552 27.928 19.7662 28.0946 19.9328C28.1501 19.9883 28.2056 20.0439 28.2612 20.0994L28.0946 20.3215L28.3167 20.1549C28.3722 20.2104 28.3722 20.2659 28.4277 20.3215L30.0379 25.2075H34.4797L36.4231 20.5991C36.5341 20.3215 36.7562 20.0994 37.0338 19.9883C37.3114 19.8773 37.589 19.8773 37.8667 19.9883C38.4219 20.2104 38.6995 20.8767 38.4774 21.4319L36.9228 25.152H38.5885C39.1992 25.152 39.6989 25.6517 39.6989 26.2624C39.6989 26.8732 39.1992 27.3729 38.5885 27.3729H35.9789L32.8696 34.7575C32.8696 34.813 32.8141 34.8685 32.7585 34.924C32.703 34.9796 32.703 34.9796 32.6475 35.0351C32.5364 35.1461 32.3699 35.2572 32.2033 35.3127C31.5925 35.4793 30.9818 35.2017 30.8152 34.5909L28.4277 27.3174H26.3734L24.1525 34.5909C23.9304 35.0906 23.4862 35.4237 23.042 35.4237ZM16.2682 25.6517C15.935 25.6517 15.7129 25.9293 15.7129 26.2069C15.7129 26.4845 15.9906 26.7621 16.2682 26.7621H19.2664L22.4868 34.4799C22.4868 34.5354 22.5423 34.5354 22.5423 34.5909C22.5423 34.5909 22.5423 34.6464 22.5978 34.6464C22.7089 34.7575 22.7644 34.813 22.8754 34.813C23.153 34.924 23.4862 34.7575 23.5972 34.4243L25.9847 26.7621H28.8164L31.3149 34.4243C31.426 34.7019 31.7036 34.8685 32.0367 34.7575C32.0923 34.7575 32.2033 34.7019 32.2588 34.5909C32.2588 34.5909 32.2588 34.5354 32.3144 34.5354C32.3699 34.4799 32.3699 34.4799 32.3699 34.4243L32.4254 34.3688L35.5902 26.7621H38.5885C38.9216 26.7621 39.1437 26.4845 39.1437 26.2069C39.1437 25.9293 38.8661 25.6517 38.5885 25.6517H36.0899L37.9777 21.1543C38.0888 20.8767 37.9777 20.5436 37.7001 20.4325C37.589 20.377 37.4225 20.377 37.2559 20.4325C37.0893 20.488 37.0338 20.5991 36.9783 20.7101L34.9239 25.6517H29.7048L27.928 20.2659C27.8725 20.2104 27.8725 20.1549 27.817 20.1549C27.7059 20.0439 27.6504 19.9883 27.5394 19.9883C27.3728 19.9328 27.2617 19.9328 27.0952 20.0439C26.9841 20.0994 26.8731 20.2104 26.8176 20.377L25.2074 25.6517H20.1548L18.1004 20.7101C18.0449 20.5991 17.9339 20.488 17.8228 20.4325C17.6563 20.377 17.5452 20.377 17.3786 20.4325C17.101 20.5436 16.9345 20.8767 17.101 21.1543L18.9888 25.6517H16.2682ZM22.9309 32.6476L20.4879 26.7621H24.7632L22.9309 32.6476ZM21.3208 27.3174L22.8754 31.0374L24.0414 27.3174H21.3208ZM31.8702 32.6476L29.9269 26.7621H34.3132L31.8702 32.6476ZM30.7042 27.3174L31.9257 31.0374L33.4803 27.3174H30.7042ZM28.4277 25.6517H26.3179L27.3728 22.3203L28.4277 25.6517ZM27.0397 25.0965H27.6504L27.3173 24.1526L27.0397 25.0965Z" fill="white"/>
</svg>
