<svg width="55" height="55" viewBox="0 0 55 55" fill="none" xmlns="http://www.w3.org/2000/svg">
<path d="M27.1508 54.3016C42.1458 54.3016 54.3016 42.1458 54.3016 27.1508C54.3016 12.1558 42.1458 0 27.1508 0C12.1558 0 0 12.1558 0 27.1508C0 42.1458 12.1558 54.3016 27.1508 54.3016Z" fill="#3F5664"/>
<path d="M27.1507 50.5816C40.0912 50.5816 50.5814 40.0913 50.5814 27.1508C50.5814 14.2104 40.0912 3.72009 27.1507 3.72009C14.2103 3.72009 3.71997 14.2104 3.71997 27.1508C3.71997 40.0913 14.2103 50.5816 27.1507 50.5816Z" fill="#49C474"/>
<path d="M27.1507 47.028C38.1286 47.028 47.028 38.1287 47.028 27.1508C47.028 16.1729 38.1286 7.2735 27.1507 7.2735C16.1728 7.2735 7.27344 16.1729 7.27344 27.1508C7.27344 38.1287 16.1728 47.028 27.1507 47.028Z" fill="#3F5664"/>
<path d="M27.1509 43.8633C36.381 43.8633 43.8634 36.3808 43.8634 27.1508C43.8634 17.9208 36.381 10.4384 27.1509 10.4384C17.9209 10.4384 10.4385 17.9208 10.4385 27.1508C10.4385 36.3808 17.9209 43.8633 27.1509 43.8633Z" fill="#FCFCFC"/>
<path d="M14.7693 40.5873L14.3251 40.1432C13.7144 39.5879 13.7144 38.5885 14.2696 37.9778L37.3672 13.7697C37.9224 13.1589 38.9218 13.1589 39.5326 13.7142L39.9768 14.1584C40.5875 14.7136 40.5875 15.713 40.0323 16.3238L16.9347 40.5318C16.3795 41.1426 15.3801 41.1981 14.7693 40.5873Z" fill="#3F5664"/>
</svg>
