<svg width="62" height="55" viewBox="0 0 62 55" fill="none" xmlns="http://www.w3.org/2000/svg">
<path d="M52.4225 42.8306C54.6989 38.6663 55.8094 34.3355 55.4762 29.7826C54.921 20.8989 50.8678 14.0141 43.1501 9.51672C28.2144 0.799594 9.22549 9.84986 6.50486 26.951C5.17231 35.3905 7.72637 42.6085 13.7229 48.6605C14.2781 49.2157 14.7778 49.882 14.9999 50.6038C15.3885 51.9364 14.7223 53.2689 13.5563 53.9352C12.3348 54.6015 10.9467 54.4904 9.89178 53.491C7.11562 50.8814 4.83917 47.8276 3.17348 44.3852C-5.82126 26.1181 5.17232 4.24202 25.2161 0.521978C41.9286 -2.58731 58.1413 8.5173 61.1951 25.2297C62.5277 32.3922 61.3617 39.2216 57.8637 45.6067C57.7527 45.7733 57.6416 45.9954 57.5306 46.273C58.53 46.9393 59.4739 47.55 60.5844 48.2718C56.6977 50.2151 52.8666 52.0474 48.98 53.9907C49.2576 49.6599 49.5353 45.4402 49.8129 41.1094C50.7012 41.6646 51.5341 42.2198 52.4225 42.8306Z" fill="#3F5664"/>
<path d="M30.8792 38.3887C25.6045 43.3858 18.553 41.8867 15.1106 38.0556C11.4461 33.9469 11.3906 27.8948 14.9996 23.6751C18.0533 20.0661 25.1603 17.8452 30.8792 23.1754C36.1538 18.1783 43.3163 19.6774 46.7588 23.7306C50.4233 28.0059 50.2012 34.391 46.2591 38.3887C42.3169 42.3864 35.5986 42.9416 30.8792 38.3887ZM43.1498 30.8376C43.1498 28.2835 41.0954 26.1736 38.5413 26.1736C36.0428 26.1736 33.9329 28.228 33.9329 30.7265C33.8774 33.2806 35.9873 35.3905 38.5413 35.3905C41.0954 35.446 43.1498 33.3916 43.1498 30.8376ZM23.1059 26.1736C20.5519 26.1736 18.4975 28.2835 18.553 30.8376C18.553 33.3916 20.6074 35.3905 23.1615 35.3905C25.7155 35.3905 27.8254 33.2806 27.8254 30.7265C27.7699 28.2835 25.66 26.1736 23.1059 26.1736Z" fill="#49C474"/>
</svg>
