<svg xmlns="http://www.w3.org/2000/svg" viewBox="0 0 805.46 727.83"><defs><style>.cls-1{fill:#fbe2ef;}.cls-2,.cls-4,.cls-7{fill:#fff;}.cls-3{fill:#e40233;}.cls-10,.cls-4,.cls-9{stroke:#e40233;stroke-miterlimit:10;}.cls-10,.cls-4,.cls-5,.cls-7,.cls-8,.cls-9{stroke-linecap:round;}.cls-4,.cls-9{stroke-width:4px;}.cls-10,.cls-5,.cls-8,.cls-9{fill:none;}.cls-5{stroke:#55b3e6;stroke-width:5px;}.cls-5,.cls-7,.cls-8{stroke-linejoin:round;}.cls-6{fill:#55b3e6;}.cls-7,.cls-8{stroke:#fff;stroke-width:4.61px;}.cls-10{stroke-width:3px;}</style></defs><g id="Layer_2" data-name="Layer 2"><g id="CLOUDS"><path class="cls-1" d="M805.22,719c-.46-.24-1.32.77,0,.69C805.72,719.18,805.33,719.88,805.22,719Zm-.45,2.23c-.22-.12-.85.26.17.78C805,722,804.89,721.81,804.77,721.26Zm-93.54-536c-49-3.91-102-42.79-148.7-36.86,7.55-12.38-51.16-17.53-35.19-47.56-6.22-24.06-1.24,25.05-40,11.55,10.74-50.66-34.54-9.35-58-65.77C416.59,48,399.59,58.85,393.78,22.2c-32.67,8.73-65.44-.38-47.32,75.55,18.86,3.93-134.8,67.43-58.47,66.65-15.92,15-100.92,36.21-99.31-10.74-35.37-4-42.56,3.84-16.77,40.31,7.73-4.79-3.78,41.77,17.46,47.65-13.72,7.15-43.16-12.05-32.74,7.48-5.08-2.77-9.15-13.44-9.65-2.33-2.73-3.48-1.75,6.89-3.81-.39,1,5.3-5.77-1-7.22-6.51-1.34,3.72-3,3.72-9.27,4.56-18,32.71-21.84-24.65-35.88-7.93,2.73-1.44,3.68-19-5.38-2,5.36-9.45-22.44-4.27-16.81,5.5-3.6,3.82-5.23,6.3-15.59,1.36.37,2.71-2.46,0-1.23,5.33-.45-1.79-4.57-1.13-6.44,1.45-.23-8.31-28.56,1.59-31.62,6.38C.49,255.28-14.33,290.07,27.79,268c-14.32,10.4,3.5,3.1-1.43,9.23C26,276.18,6.84,265.8,14.11,290c3.65-11.12,34.52-.36-8.85,11.81,18-2.48,29.58,33.83,33.53,7.86-.13,2.16,3.87,6.34,7.47,4.11-.14-.09.16,1.64-1.46,1.25,3.1-8.34,29.77,18.19,41.68,3.35-7.44,6.26,4.82,7.8-3.8,7.61,4,1.57,11.24-3.53,13.15-3.57-1.71,2.67-4.57,17,3,20.71-8.29-9.11,6.36-8.67,7.65-7.2,1-1.14,13.72-5.63,12.57-7.4,2.88.91-1.53,19,2.75,8.82,0,.88,4.56.46,1.48-.63.39-.7,1.81.79,3.35-1.31-.19.05,3.23,1.8,12,3.28-31.89,24.56.44,19.85,22.74,37.2-28.28,31.38,67.13,57.63,53.15,79,9.22,11.41-13,8.42,8.14,23.51-28.7-13.33-10.69,5.76-10.55,86.19,28.62-47-29.41,106.08-13.76,107,21.44-16.64-2.35,31.17,18.57,9.37-8.32,7.1,23.95,5.5,42.42,22.48,41,6.5,96.95-18.53,145.57,24.46,32.55-17.35,72.69,19.61,54.6-50.94,2.2,8.87-.92-11.9,2.55-10.28,25.62-17.73,46.26-41.11,43.39-35.43,10.68-8.69,58.21,36.3,41.93-3.24,4.44,2.61-2.18,12.58,9.69,14.57,4.67-5.25,8.27-16.59,19.19-9.16-20.93,17.42-7.49,2.51,8.36,14.3-2.35,3.34,39.54,18.62,29.3,11.06-.26.34,4.45-3.27,3.05.35,37.86,1.77,30.24-11.44,64.82-42.71,76.68-80.89-33,3.32-16.73-94.45-56-40.58,45.68,2.12-11.4-75.4,16.23,2,1.73-87.92-47.95-21.66,12.19-47.79,35.13-98.85,83.82-122.26C672.92,270.57,709.62,213.53,711.23,185.24Z"/><path class="cls-2" d="M502.12,185.74h2.45a2.08,2.08,0,0,0,2.27-1.8v-4.5a2.08,2.08,0,0,0-2.27-1.81h-2.46V170a30.9,30.9,0,0,0-30.86-30.87h-7.67v-2.3a2.08,2.08,0,0,0-1.8-2.27h-4.5a2.08,2.08,0,0,0-1.81,2.27v2.3H440.59a13.38,13.38,0,0,1-13.36-13.37v-4.49h.49a2.08,2.08,0,0,0,2.2-1.8v-4.5a2.07,2.07,0,0,0-2.2-1.8l-.49,0V96.69h-4.5v29.05a17.89,17.89,0,0,0,17.86,17.87h30.66A26.39,26.39,0,0,1,497.61,170l0,111.55h4.54v-4.34h2.73a2.08,2.08,0,0,0,2.27-1.8v-4.5a2.08,2.08,0,0,0-2.27-1.81h-2.73V246.7h2.73a2.09,2.09,0,0,0,2.27-1.81v-4.5a2.08,2.08,0,0,0-2.27-1.81h-2.73V216.21h2.73a2.08,2.08,0,0,0,2.27-1.81v-4.5a2.08,2.08,0,0,0-2.27-1.81h-2.73Z"/><path class="cls-2" d="M470.87,152H440.22a26.39,26.39,0,0,1-26.37-26.36v-29h-4.5v16.52h-1.06a2.08,2.08,0,0,0-2.27,1.81v4.5a2.08,2.08,0,0,0,2.27,1.8h1.06v4.42a30.9,30.9,0,0,0,30.87,30.86h15.25v2.64a2.09,2.09,0,0,0,1.81,2.28h4.5a2.09,2.09,0,0,0,1.8-2.28v-2.64h7.29a13.39,13.39,0,0,1,13.37,13.37v7.74h-3a2.09,2.09,0,0,0-2.28,1.81v4.5a2.09,2.09,0,0,0,2.28,1.8h2.88v22.35h-3.3a2.08,2.08,0,0,0-2.27,1.81v4.5a2.08,2.08,0,0,0,2.27,1.81h3.3v22.37h-3.3a2.08,2.08,0,0,0-2.27,1.81v4.5a2.09,2.09,0,0,0,2.27,1.81h3.3v22.37h-3.3a2.08,2.08,0,0,0-2.27,1.81v4.5a2.08,2.08,0,0,0,2.27,1.8h3.3v4.34h4.54V198.94h.11V169.89A17.88,17.88,0,0,0,470.87,152Z"/><path class="cls-2" d="M402,113.13h-1.35V96.61h-4.5v29.05A26.39,26.39,0,0,1,369.75,152H339.09a17.88,17.88,0,0,0-17.86,17.87v29.05l.1-10V454.4l4.55-1V413.08h3.29a2.09,2.09,0,0,0,2.28-1.81v-4.5a2.09,2.09,0,0,0-2.28-1.81h-3.29V377.59h3.29a2.09,2.09,0,0,0,2.28-1.81v-4.5a2.09,2.09,0,0,0-2.28-1.81h-3.29V342.09h3.29a2.09,2.09,0,0,0,2.28-1.8v-4.5a2.09,2.09,0,0,0-2.28-1.81h-3.29V305.6h3.29a2.09,2.09,0,0,0,2.28-1.81v-4.5a2.09,2.09,0,0,0-2.28-1.8h-3.29V274.18h3.29a2.09,2.09,0,0,0,2.28-1.81v-4.5a2.09,2.09,0,0,0-2.28-1.8h-3.29V243.69h3.29a2.09,2.09,0,0,0,2.28-1.8v-4.5a2.09,2.09,0,0,0-2.28-1.81h-3.29V213.21h3.29a2.09,2.09,0,0,0,2.28-1.81v-4.5a2.09,2.09,0,0,0-2.28-1.81h-3.29V187.61h-.15v-1.87h3a2.08,2.08,0,0,0,2.27-1.8v-4.5a2.08,2.08,0,0,0-2.27-1.81h-3v-7.74a13.38,13.38,0,0,1,13.36-13.37h7.29v2.64a2.09,2.09,0,0,0,1.81,2.28h4.5a2.09,2.09,0,0,0,1.81-2.28v-2.64h15.25a30.9,30.9,0,0,0,30.86-30.86v-4.42H402a2.08,2.08,0,0,0,2.27-1.8v-4.5A2.08,2.08,0,0,0,402,113.13Z"/><path class="cls-2" d="M312.35,170a26.4,26.4,0,0,1,26.37-26.37h30.65a17.89,17.89,0,0,0,17.87-17.87v-29h-4.5v16.44h-.64a2.09,2.09,0,0,0-2.28,1.81v4.5a2.09,2.09,0,0,0,2.28,1.8h.64v4.5a13.39,13.39,0,0,1-13.37,13.37H354.5v-2.3a2.09,2.09,0,0,0-1.81-2.27h-4.5a2.08,2.08,0,0,0-1.81,2.27v2.3h-7.66A30.91,30.91,0,0,0,307.85,170v7.66h-2.46a2.08,2.08,0,0,0-2.27,1.81v4.5a2.08,2.08,0,0,0,2.27,1.8h2.46v19.35h-2.72a2.08,2.08,0,0,0-2.27,1.81v4.5a2.09,2.09,0,0,0,2.27,1.81h2.72v22.37h-2.72a2.08,2.08,0,0,0-2.27,1.81v4.5a2.08,2.08,0,0,0,2.27,1.8h2.72v22.38h-2.72a2.08,2.08,0,0,0-2.27,1.8v4.5a2.08,2.08,0,0,0,2.27,1.81h2.72v23.31h-2.72a2.08,2.08,0,0,0-2.27,1.8v4.5a2.08,2.08,0,0,0,2.27,1.81h2.72V334h-2.72a2.08,2.08,0,0,0-2.27,1.81v4.5a2.08,2.08,0,0,0,2.27,1.8h2.72v27.38h-2.72a2.08,2.08,0,0,0-2.27,1.81v4.5a2.08,2.08,0,0,0,2.27,1.81h2.72V405h-2.72a2.08,2.08,0,0,0-2.27,1.81v4.5a2.08,2.08,0,0,0,2.27,1.81h2.72v40.36l4.55,1V177.6l0,9.51Z"/><circle class="cls-3" cx="609.84" cy="417.24" r="16.94"/><path class="cls-4" d="M493.44,334.84h0a6.75,6.75,0,0,1,6.75,6.75v16a0,0,0,0,1,0,0h-13.5a0,0,0,0,1,0,0v-16a6.75,6.75,0,0,1,6.75-6.75Z"/><path class="cls-5" d="M493.19,346.22V169.7a21.83,21.83,0,0,0-21.8-21.8H439.78c-12,0-21.8-10.78-21.69-22.79v-57"/><path class="cls-5" d="M316.46,482.72v-323c0-2,9.78-11.79,21.79-11.79h31.62c12,0,21.8-10.78,21.69-22.79v-57"/><rect class="cls-6" x="387.79" y="63.6" width="33.72" height="19.33"/><path class="cls-7" d="M423.85,21a18.67,18.67,0,0,0-37.33,0h-8V95.22h53V21Z"/><rect class="cls-8" x="386.73" y="29.1" width="36.29" height="55"/><rect class="cls-7" x="436.5" y="328.14" width="6.37" height="40.04"/><polygon class="cls-7" points="444.87 375.02 434.5 375.02 436.5 368.18 442.87 368.18 444.87 375.02"/><rect class="cls-7" x="434.5" y="321.31" width="10.37" height="6.83"/><rect class="cls-7" x="470.86" y="328.14" width="6.37" height="40.04"/><polygon class="cls-7" points="479.23 375.02 468.86 375.02 470.86 368.18 477.23 368.18 479.23 375.02"/><polygon class="cls-7" points="498.28 374.1 487.9 374.1 489.91 367.26 496.28 367.26 498.28 374.1"/><rect class="cls-7" x="468.86" y="321.31" width="10.37" height="6.83"/><rect class="cls-7" x="510.23" y="328.14" width="6.37" height="40.04"/><polygon class="cls-7" points="518.6 375.02 508.23 375.02 510.23 368.18 516.6 368.18 518.6 375.02"/><rect class="cls-7" x="508.23" y="321.31" width="10.37" height="6.83"/><rect class="cls-7" x="545.52" y="328.14" width="6.37" height="40.04"/><polygon class="cls-7" points="553.89 375.02 541.52 375.02 545.52 368.18 551.89 368.18 553.89 375.02"/><rect class="cls-7" x="541.52" y="321.31" width="12.38" height="6.83"/><rect class="cls-7" x="567.46" y="328.14" width="6.37" height="40.04"/><polygon class="cls-7" points="575.83 375.02 565.46 375.02 567.46 368.18 573.83 368.18 575.83 375.02"/><rect class="cls-7" x="565.46" y="321.31" width="10.37" height="6.83"/><rect class="cls-7" x="414.05" y="328.14" width="6.37" height="40.04" transform="translate(834.47 696.32) rotate(180)"/><polygon class="cls-7" points="412.05 375.02 422.42 375.02 420.42 368.18 414.05 368.18 412.05 375.02"/><rect class="cls-7" x="412.05" y="321.31" width="10.37" height="6.83" transform="translate(834.47 649.45) rotate(180)"/><path class="cls-4" d="M493.44,357.59h0a6.75,6.75,0,0,1,6.75,6.75v2a0,0,0,0,1,0,0h-13.5a0,0,0,0,1,0,0v-2A6.75,6.75,0,0,1,493.44,357.59Z" transform="translate(986.88 723.94) rotate(180)"/><line class="cls-7" x1="382.14" y1="375.02" x2="606.49" y2="375.02"/><path class="cls-7" d="M551.25,268.34H414.69v53h4s0-.05,0-.08c0-7.66,3.94-13.88,8.8-13.88s8.79,6.22,8.79,13.88v.08h6.53v-.08a13.88,13.88,0,0,1,27.76,0s0,0,0,.08H478s0-.05,0-.08c0-7.66,8.22-13.88,15.88-13.88s15.88,6.22,15.88,13.88v.08h7.45s0-.05,0-.08a13.88,13.88,0,1,1,27.76,0s0,0,0,.08h6.67v-.08c0-7.66,3.94-13.88,8.79-13.88s8.79,6.22,8.79,13.88v.08h4v-53Z"/><line class="cls-9" x1="444.87" y1="298.52" x2="469.86" y2="298.52"/><line class="cls-9" x1="478.88" y1="298.52" x2="508.87" y2="298.52"/><line class="cls-8" x1="412.05" y1="289.52" x2="575.83" y2="289.52"/><line class="cls-9" x1="517.89" y1="298.52" x2="542.88" y2="298.52"/><line class="cls-10" x1="481.54" y1="281.85" x2="481.54" y2="276.68"/><line class="cls-10" x1="489.2" y1="281.85" x2="489.2" y2="276.68"/><line class="cls-10" x1="496.85" y1="281.85" x2="496.85" y2="276.68"/><line class="cls-10" x1="504.51" y1="281.85" x2="504.51" y2="276.68"/><line class="cls-10" x1="518.9" y1="281.85" x2="518.9" y2="276.68"/><line class="cls-10" x1="526.55" y1="281.85" x2="526.55" y2="276.68"/><line class="cls-10" x1="534.21" y1="281.85" x2="534.21" y2="276.68"/><line class="cls-10" x1="541.86" y1="281.85" x2="541.86" y2="276.68"/><line class="cls-10" x1="445.88" y1="281.85" x2="445.88" y2="276.68"/><line class="cls-10" x1="453.54" y1="281.85" x2="453.54" y2="276.68"/><line class="cls-10" x1="461.19" y1="281.85" x2="461.19" y2="276.68"/><line class="cls-10" x1="468.85" y1="281.85" x2="468.85" y2="276.68"/><line class="cls-9" x1="551.41" y1="298.52" x2="565.88" y2="298.52"/><line class="cls-9" x1="436.46" y1="298.52" x2="422" y2="298.52"/><line class="cls-10" x1="562.86" y1="281.85" x2="562.86" y2="276.68"/><line class="cls-10" x1="555.69" y1="281.85" x2="555.69" y2="276.68"/><line class="cls-10" x1="431.86" y1="281.85" x2="431.86" y2="276.68"/><line class="cls-10" x1="424.69" y1="281.85" x2="424.69" y2="276.68"/></g></g></svg>