<svg xmlns="http://www.w3.org/2000/svg" viewBox="0 0 855.23 955.09"><defs><style>.cls-1,.cls-2,.cls-3{fill:none;stroke:#fff;stroke-linecap:round;stroke-linejoin:round;}.cls-1{stroke-width:4.99px;}.cls-2{stroke-width:5px;}.cls-3{stroke-width:4.93px;}</style></defs><g id="Layer_2" data-name="Layer 2"><g id="CLOUDS"><line class="cls-1" x1="520.96" y1="232.4" x2="520.96" y2="201.92"/><path class="cls-1" d="M521.14,170.46,536.38,220s-.89,5.16-15.24,5.16S505.37,220,505.37,220Z"/><line class="cls-1" x1="516.71" y1="211.61" x2="521.03" y2="215.64"/><line class="cls-1" x1="524.39" y1="206.27" x2="521.03" y2="209.37"/><line class="cls-2" x1="502.7" y1="127.17" x2="502.7" y2="115.55"/><path class="cls-2" d="M502.59,91.35,493.76,120s.51,3,8.83,3,9.15-3,9.15-3Z"/><line class="cls-2" x1="100.24" y1="923.17" x2="100.24" y2="911.55"/><path class="cls-2" d="M100.14,887.36,91.3,916s.51,3,8.84,3,9.14-3,9.14-3Z"/><line class="cls-2" x1="526.99" y1="85.98" x2="526.99" y2="74.36"/><path class="cls-2" d="M526.88,50.16,518,78.79s.52,3,8.84,3,9.15-3,9.15-3Z"/><line class="cls-2" x1="573.83" y1="38.32" x2="573.83" y2="26.7"/><path class="cls-2" d="M573.73,2.5l-8.84,28.62s.51,3,8.84,3,9.14-3,9.14-3Z"/><line class="cls-2" x1="181.24" y1="131.96" x2="181.24" y2="120.34"/><path class="cls-2" d="M181.14,96.15l-8.84,28.62s.51,3,8.84,3,9.14-3,9.14-3Z"/><line class="cls-2" x1="146.48" y1="179.66" x2="146.48" y2="168.04"/><path class="cls-2" d="M146.38,143.84l-8.84,28.63s.52,3,8.84,3,9.15-3,9.15-3Z"/><line class="cls-2" x1="95.9" y1="207.14" x2="95.9" y2="195.52"/><path class="cls-2" d="M95.8,171.32,87,199.94s.51,3,8.84,3,9.14-3,9.14-3Z"/><line class="cls-2" x1="70.89" y1="157.92" x2="70.89" y2="146.3"/><path class="cls-2" d="M70.79,122.1,62,150.73s.51,3,8.84,3,9.14-3,9.14-3Z"/><line class="cls-2" x1="123.91" y1="127.36" x2="123.91" y2="115.74"/><path class="cls-2" d="M123.8,91.54,115,120.16s.52,3,8.84,3,9.15-3,9.15-3Z"/><line class="cls-2" x1="68.79" y1="235.13" x2="68.79" y2="223.51"/><path class="cls-2" d="M68.68,199.32l-8.84,28.62s.52,3,8.84,3,9.15-3,9.15-3Z"/><line class="cls-2" x1="551.32" y1="177.27" x2="551.32" y2="146.79"/><path class="cls-2" d="M551.5,115.32l15.29,49.51S565.9,170,551.5,170s-15.82-5.15-15.82-5.15Z"/><line class="cls-2" x1="547.06" y1="156.47" x2="551.39" y2="160.5"/><line class="cls-2" x1="554.76" y1="151.14" x2="551.39" y2="154.24"/><line class="cls-1" x1="585.77" y1="348.09" x2="585.77" y2="317.61"/><path class="cls-1" d="M586,286.15l15.24,49.5s-.89,5.16-15.24,5.16-15.77-5.16-15.77-5.16Z"/><line class="cls-1" x1="581.52" y1="327.3" x2="585.84" y2="331.32"/><line class="cls-1" x1="589.2" y1="321.96" x2="585.84" y2="325.06"/><line class="cls-1" x1="223.94" y1="389.35" x2="223.94" y2="358.87"/><path class="cls-1" d="M224.12,327.41l15.23,49.5s-.88,5.16-15.23,5.16-15.78-5.16-15.78-5.16Z"/><line class="cls-1" x1="219.69" y1="368.56" x2="224.01" y2="372.58"/><line class="cls-1" x1="227.36" y1="363.22" x2="224.01" y2="366.32"/><line class="cls-1" x1="622.71" y1="461.71" x2="622.71" y2="431.22"/><path class="cls-1" d="M622.89,399.76l15.24,49.5s-.89,5.16-15.24,5.16-15.77-5.16-15.77-5.16Z"/><line class="cls-1" x1="618.46" y1="440.91" x2="622.78" y2="444.94"/><line class="cls-1" x1="626.14" y1="435.58" x2="622.78" y2="438.67"/><line class="cls-1" x1="130.56" y1="408.51" x2="130.56" y2="378.03"/><path class="cls-1" d="M130.73,346.56,146,396.07s-.88,5.15-15.24,5.15S115,396.07,115,396.07Z"/><line class="cls-1" x1="126.3" y1="387.71" x2="130.63" y2="391.74"/><line class="cls-1" x1="133.98" y1="382.38" x2="130.63" y2="385.48"/><line class="cls-2" x1="581.48" y1="260.98" x2="581.48" y2="230.5"/><path class="cls-2" d="M581.3,199,566,248.54s.88,5.15,15.28,5.15,15.82-5.15,15.82-5.15Z"/><line class="cls-2" x1="585.75" y1="240.18" x2="581.41" y2="244.21"/><line class="cls-2" x1="578.04" y1="234.85" x2="581.41" y2="237.95"/><line class="cls-2" x1="535.77" y1="305.16" x2="535.77" y2="274.67"/><path class="cls-2" d="M536,243.21l15.28,49.5s-.88,5.16-15.28,5.16-15.82-5.16-15.82-5.16Z"/><line class="cls-2" x1="531.5" y1="284.36" x2="535.84" y2="288.39"/><line class="cls-2" x1="539.21" y1="279.03" x2="535.84" y2="282.12"/><line class="cls-2" x1="128.38" y1="288.51" x2="128.38" y2="258.02"/><path class="cls-2" d="M128.2,226.56l-15.29,49.51s.89,5.15,15.29,5.15S144,276.07,144,276.07Z"/><line class="cls-2" x1="132.64" y1="267.71" x2="128.31" y2="271.74"/><line class="cls-2" x1="124.94" y1="262.38" x2="128.31" y2="265.48"/><line class="cls-2" x1="27.27" y1="303.27" x2="27.27" y2="272.79"/><path class="cls-2" d="M27.09,241.33l-15.28,49.5S12.7,296,27.09,296s15.82-5.16,15.82-5.16Z"/><line class="cls-2" x1="31.54" y1="282.48" x2="27.2" y2="286.51"/><line class="cls-2" x1="23.83" y1="277.14" x2="27.2" y2="280.24"/><line class="cls-2" x1="169.47" y1="523.65" x2="169.47" y2="480.78"/><path class="cls-2" d="M169.22,436.53l-21.5,69.62s1.25,7.25,21.5,7.25,22.25-7.25,22.25-7.25Z"/><line class="cls-2" x1="175.47" y1="494.4" x2="169.37" y2="500.07"/><line class="cls-2" x1="27.61" y1="531.9" x2="27.61" y2="489.03"/><path class="cls-2" d="M27.36,444.78,5.86,514.4s1.25,7.25,21.5,7.25,22.25-7.25,22.25-7.25Z"/><line class="cls-2" x1="33.61" y1="502.65" x2="27.51" y2="508.32"/><line class="cls-2" x1="27.61" y1="658.38" x2="27.61" y2="615.5"/><path class="cls-2" d="M27.36,571.25,5.86,640.88s1.25,7.25,21.5,7.25,22.25-7.25,22.25-7.25Z"/><line class="cls-2" x1="33.61" y1="629.13" x2="27.51" y2="634.79"/><line class="cls-2" x1="27.61" y1="776.1" x2="27.61" y2="733.23"/><path class="cls-2" d="M27.36,689,5.86,758.6s1.25,7.25,21.5,7.25,22.25-7.25,22.25-7.25Z"/><line class="cls-2" x1="33.61" y1="746.85" x2="27.51" y2="752.52"/><line class="cls-3" x1="97.9" y1="503.82" x2="97.9" y2="456.36"/><path class="cls-3" d="M98.14,412.11,119,481.74S117.79,489,98.14,489s-21.59-7.25-21.59-7.25Z"/><line class="cls-3" x1="92.07" y1="469.99" x2="97.99" y2="475.65"/><line class="cls-3" x1="102.59" y1="462.49" x2="97.99" y2="466.84"/><line class="cls-2" x1="80.59" y1="382.64" x2="80.59" y2="339.77"/><path class="cls-2" d="M80.84,295.52l21.5,69.62s-1.25,7.25-21.5,7.25-22.25-7.25-22.25-7.25Z"/><line class="cls-2" x1="74.59" y1="353.39" x2="80.69" y2="359.06"/><line class="cls-2" x1="85.43" y1="345.89" x2="80.69" y2="350.25"/><line class="cls-2" x1="24.25" y1="433.51" x2="24.25" y2="390.64"/><path class="cls-2" d="M24,346.39,2.5,416s1.25,7.25,21.5,7.25S46.25,416,46.25,416Z"/><line class="cls-2" x1="672.68" y1="409.95" x2="672.68" y2="367.08"/><path class="cls-2" d="M672.43,322.83l-21.5,69.62s1.25,7.25,21.5,7.25,22.25-7.25,22.25-7.25Z"/><line class="cls-2" x1="678.68" y1="380.7" x2="672.59" y2="386.37"/><line class="cls-2" x1="667.85" y1="373.2" x2="672.59" y2="377.56"/><line class="cls-3" x1="655.74" y1="572.39" x2="655.74" y2="529.52"/><path class="cls-3" d="M656,485.27l20.87,69.62s-1.21,7.25-20.87,7.25-21.59-7.25-21.59-7.25Z"/><line class="cls-3" x1="649.92" y1="543.14" x2="655.84" y2="548.81"/><line class="cls-3" x1="660.43" y1="535.64" x2="655.84" y2="539.99"/><line class="cls-3" x1="582.31" y1="560.77" x2="582.31" y2="517.9"/><path class="cls-3" d="M582.55,473.65l20.87,69.62s-1.22,7.25-20.87,7.25S561,543.27,561,543.27Z"/><line class="cls-3" x1="576.49" y1="531.52" x2="582.41" y2="537.19"/><line class="cls-3" x1="587" y1="524.02" x2="582.41" y2="528.38"/><line class="cls-3" x1="241.54" y1="585.38" x2="241.54" y2="542.5"/><path class="cls-3" d="M241.78,498.25l20.87,69.63s-1.21,7.25-20.87,7.25-21.59-7.25-21.59-7.25Z"/><line class="cls-3" x1="235.72" y1="556.13" x2="241.64" y2="561.79"/><line class="cls-3" x1="246.23" y1="548.63" x2="241.64" y2="552.98"/><line class="cls-2" x1="729.82" y1="515.89" x2="729.82" y2="473.02"/><path class="cls-2" d="M730.07,428.77l21.5,69.62s-1.25,7.25-21.5,7.25-22.25-7.25-22.25-7.25Z"/><line class="cls-2" x1="723.82" y1="486.64" x2="729.92" y2="492.31"/><line class="cls-2" x1="734.66" y1="479.14" x2="729.92" y2="483.5"/><line class="cls-1" x1="718.15" y1="592.57" x2="718.15" y2="562.09"/><path class="cls-1" d="M718.33,530.63l15.24,49.5s-.89,5.16-15.24,5.16-15.77-5.16-15.77-5.16Z"/><line class="cls-1" x1="713.9" y1="571.78" x2="718.22" y2="575.81"/><line class="cls-1" x1="721.58" y1="566.44" x2="718.22" y2="569.54"/><line class="cls-3" x1="751.18" y1="703.26" x2="751.18" y2="660.38"/><path class="cls-3" d="M751.43,616.13l20.86,69.63S771.08,693,751.43,693s-21.6-7.25-21.6-7.25Z"/><line class="cls-3" x1="745.36" y1="674.01" x2="751.28" y2="679.67"/><line class="cls-3" x1="755.87" y1="666.51" x2="751.28" y2="670.86"/><line class="cls-3" x1="677.75" y1="691.64" x2="677.75" y2="648.76"/><path class="cls-3" d="M678,604.51l20.87,69.63s-1.21,7.25-20.87,7.25-21.59-7.25-21.59-7.25Z"/><line class="cls-3" x1="671.93" y1="662.39" x2="677.85" y2="668.05"/><line class="cls-3" x1="682.44" y1="654.89" x2="677.85" y2="659.24"/><line class="cls-3" x1="628.08" y1="740" x2="628.08" y2="697.13"/><path class="cls-3" d="M628.32,652.88l20.87,69.62s-1.22,7.25-20.87,7.25-21.59-7.25-21.59-7.25Z"/><line class="cls-3" x1="622.26" y1="710.75" x2="628.18" y2="716.42"/><line class="cls-3" x1="632.77" y1="703.25" x2="628.18" y2="707.61"/><line class="cls-2" x1="797.7" y1="574.21" x2="797.7" y2="531.34"/><path class="cls-2" d="M798,487.09l21.5,69.62S818.2,564,798,564s-22.25-7.25-22.25-7.25Z"/><line class="cls-2" x1="791.7" y1="544.96" x2="797.8" y2="550.63"/><line class="cls-2" x1="802.53" y1="537.46" x2="797.8" y2="541.81"/><line class="cls-1" x1="708.2" y1="751.14" x2="708.2" y2="720.65"/><path class="cls-1" d="M708.38,689.19l15.24,49.51s-.89,5.15-15.24,5.15-15.77-5.15-15.77-5.15Z"/><line class="cls-1" x1="703.95" y1="730.34" x2="708.27" y2="734.37"/><line class="cls-1" x1="711.63" y1="725.01" x2="708.27" y2="728.11"/><line class="cls-3" x1="741.23" y1="861.82" x2="741.23" y2="818.95"/><path class="cls-3" d="M741.48,774.7l20.86,69.62s-1.21,7.25-20.86,7.25-21.6-7.25-21.6-7.25Z"/><line class="cls-3" x1="735.41" y1="832.57" x2="741.33" y2="838.24"/><line class="cls-3" x1="745.93" y1="825.07" x2="741.33" y2="829.43"/><line class="cls-3" x1="667.8" y1="850.2" x2="667.8" y2="807.33"/><path class="cls-3" d="M668.05,763.08l20.86,69.62S687.7,840,668.05,840s-21.6-7.25-21.6-7.25Z"/><line class="cls-3" x1="661.98" y1="820.95" x2="667.9" y2="826.62"/><line class="cls-3" x1="672.49" y1="813.45" x2="667.9" y2="817.81"/><line class="cls-2" x1="815.32" y1="805.33" x2="815.32" y2="762.45"/><path class="cls-2" d="M815.57,718.2l21.5,69.63s-1.25,7.25-21.5,7.25-22.25-7.25-22.25-7.25Z"/><line class="cls-2" x1="809.32" y1="776.08" x2="815.42" y2="781.74"/><line class="cls-2" x1="820.15" y1="768.58" x2="815.42" y2="772.93"/><line class="cls-1" x1="803.65" y1="882.01" x2="803.65" y2="851.52"/><path class="cls-1" d="M803.82,820.06l15.24,49.5s-.88,5.16-15.24,5.16-15.77-5.16-15.77-5.16Z"/><line class="cls-1" x1="799.39" y1="861.21" x2="803.72" y2="865.24"/><line class="cls-1" x1="807.07" y1="855.88" x2="803.72" y2="858.97"/><line class="cls-3" x1="581.69" y1="670.7" x2="581.69" y2="627.83"/><path class="cls-3" d="M581.93,583.58,602.8,653.2s-1.22,7.25-20.87,7.25-21.59-7.25-21.59-7.25Z"/><line class="cls-3" x1="575.87" y1="641.45" x2="581.79" y2="647.12"/><line class="cls-3" x1="586.38" y1="633.95" x2="581.79" y2="638.31"/><line class="cls-2" x1="830.98" y1="681.03" x2="830.98" y2="638.16"/><path class="cls-2" d="M831.23,593.91l21.5,69.62s-1.25,7.25-21.5,7.25S809,663.53,809,663.53Z"/><line class="cls-2" x1="824.98" y1="651.78" x2="831.08" y2="657.45"/><line class="cls-2" x1="835.81" y1="644.28" x2="831.08" y2="648.64"/><line class="cls-2" x1="192.23" y1="319.92" x2="192.23" y2="277.05"/><path class="cls-2" d="M192.48,232.8,214,302.42s-1.25,7.25-21.5,7.25-22.25-7.25-22.25-7.25Z"/><line class="cls-2" x1="186.23" y1="290.67" x2="192.32" y2="296.34"/><line class="cls-2" x1="197.06" y1="283.17" x2="192.32" y2="287.53"/><line class="cls-2" x1="30.25" y1="404.26" x2="24.15" y2="409.93"/><line class="cls-2" x1="19.42" y1="396.76" x2="24.15" y2="401.12"/><line class="cls-1" x1="209.04" y1="689.76" x2="209.04" y2="659.27"/><path class="cls-1" d="M209.22,627.81l15.24,49.5s-.89,5.16-15.24,5.16-15.77-5.16-15.77-5.16Z"/><line class="cls-1" x1="204.79" y1="668.96" x2="209.11" y2="672.99"/><line class="cls-1" x1="212.47" y1="663.63" x2="209.11" y2="666.72"/><line class="cls-2" x1="105.76" y1="584.52" x2="105.76" y2="554.03"/><path class="cls-2" d="M105.58,522.57,90.29,572.08s.89,5.15,15.29,5.15,15.82-5.15,15.82-5.15Z"/><line class="cls-2" x1="110.02" y1="563.72" x2="105.69" y2="567.75"/><line class="cls-2" x1="102.32" y1="558.39" x2="105.69" y2="561.48"/><line class="cls-2" x1="247.96" y1="804.9" x2="247.96" y2="762.02"/><path class="cls-2" d="M247.71,717.77l-21.5,69.63s1.25,7.25,21.5,7.25S270,787.4,270,787.4Z"/><line class="cls-2" x1="253.96" y1="775.65" x2="247.86" y2="781.32"/><line class="cls-2" x1="106.1" y1="813.15" x2="106.1" y2="770.27"/><path class="cls-2" d="M105.85,726l-21.5,69.63s1.25,7.25,21.5,7.25,22.25-7.25,22.25-7.25Z"/><line class="cls-2" x1="112.1" y1="783.9" x2="106" y2="789.57"/><line class="cls-3" x1="176.38" y1="785.07" x2="176.38" y2="737.61"/><path class="cls-3" d="M176.63,693.36,197.49,763s-1.21,7.25-20.86,7.25S155,763,155,763Z"/><line class="cls-3" x1="170.56" y1="751.23" x2="176.48" y2="756.9"/><line class="cls-3" x1="181.07" y1="743.73" x2="176.48" y2="748.09"/><line class="cls-2" x1="227.24" y1="952.59" x2="227.24" y2="909.72"/><path class="cls-2" d="M227,865.47l-21.5,69.62s1.25,7.25,21.5,7.25,22.25-7.25,22.25-7.25Z"/><line class="cls-2" x1="233.24" y1="923.34" x2="227.14" y2="929.01"/><line class="cls-2" x1="53.14" y1="895.86" x2="53.14" y2="852.99"/><path class="cls-2" d="M52.89,808.74l-21.5,69.62s1.25,7.25,21.5,7.25,22.25-7.25,22.25-7.25Z"/><line class="cls-2" x1="59.14" y1="866.61" x2="53.04" y2="872.28"/><line class="cls-3" x1="146.95" y1="893.63" x2="146.95" y2="846.18"/><path class="cls-3" d="M147.2,801.93l20.86,69.62s-1.21,7.25-20.86,7.25-21.6-7.25-21.6-7.25Z"/><line class="cls-3" x1="141.13" y1="859.8" x2="147.05" y2="865.47"/><line class="cls-3" x1="151.64" y1="852.3" x2="147.05" y2="856.66"/><line class="cls-2" x1="159.08" y1="663.89" x2="159.08" y2="621.01"/><path class="cls-2" d="M159.33,576.76l21.5,69.63s-1.25,7.25-21.5,7.25-22.25-7.25-22.25-7.25Z"/><line class="cls-2" x1="153.08" y1="634.64" x2="159.18" y2="640.31"/><line class="cls-2" x1="163.91" y1="627.14" x2="159.18" y2="631.49"/><line class="cls-2" x1="102.74" y1="714.76" x2="102.74" y2="671.88"/><path class="cls-2" d="M102.49,627.63,81,697.26s1.25,7.25,21.5,7.25,22.25-7.25,22.25-7.25Z"/><line class="cls-2" x1="108.74" y1="685.51" x2="102.64" y2="691.17"/><line class="cls-2" x1="97.9" y1="678.01" x2="102.64" y2="682.36"/></g></g></svg>