<svg width="30" height="30" viewBox="0 0 30 30" fill="none" xmlns="http://www.w3.org/2000/svg">
<path d="M30 15C30 17.9667 29.1203 20.8668 27.4721 23.3336C25.8238 25.8003 23.4812 27.7229 20.7403 28.8582C17.9994 29.9935 14.9834 30.2906 12.0737 29.7118C9.16394 29.133 6.4912 27.7044 4.39341 25.6066C2.29562 23.5088 0.867006 20.8361 0.288228 17.9264C-0.290551 15.0166 0.00649929 12.0006 1.14181 9.25975C2.27713 6.51886 4.19972 4.17618 6.66646 2.52796C9.13319 0.879735 12.0333 0 15 0C18.9783 0 22.7936 1.58035 25.6066 4.3934C28.4197 7.20644 30 11.0218 30 15Z" fill="#FFE600"/>
<path d="M15.0002 5.25C9.16689 5.25 4.44189 8.98167 4.44189 13.5833C4.44189 16.5467 6.40189 19.14 9.34189 20.625L8.34189 24.34C8.32402 24.3947 8.32173 24.4533 8.33527 24.5092C8.34881 24.5651 8.37765 24.6162 8.41856 24.6567C8.44678 24.6849 8.48031 24.7072 8.51721 24.7224C8.55412 24.7375 8.59366 24.7452 8.63356 24.745C8.70107 24.7428 8.76579 24.7175 8.81689 24.6733L13.0952 21.785C13.7251 21.8759 14.3605 21.9221 14.9969 21.9233C20.8302 21.9233 25.5552 18.1917 25.5552 13.59C25.5552 8.98833 20.8336 5.25 15.0002 5.25Z" fill="#381E1E"/>
<path d="M8.14669 12.2684H7.00003C6.85644 12.2744 6.71413 12.2392 6.59003 12.1667C6.53494 12.1334 6.48767 12.0886 6.45144 12.0354C6.4152 11.9822 6.39084 11.9218 6.38003 11.8584C6.37226 11.8193 6.3667 11.7797 6.36336 11.74C6.35966 11.6653 6.37409 11.5908 6.40544 11.5229C6.43678 11.455 6.48411 11.3957 6.54336 11.35C6.67391 11.2492 6.83512 11.1962 7.00003 11.2H10.5084C10.6514 11.1969 10.7925 11.2344 10.915 11.3084C10.9706 11.3418 11.0184 11.3868 11.0552 11.4403C11.092 11.4937 11.117 11.5545 11.1284 11.6184C11.1326 11.656 11.1326 11.694 11.1284 11.7317C11.1334 11.8065 11.1209 11.8814 11.092 11.9505C11.0631 12.0196 11.0184 12.0811 10.9617 12.13C10.8322 12.2255 10.6741 12.2742 10.5134 12.2684H9.36336V16.2267C9.36706 16.3103 9.35425 16.3938 9.32565 16.4724C9.29705 16.5511 9.25323 16.6233 9.19669 16.685C9.13837 16.7425 9.0686 16.787 8.99193 16.8157C8.91526 16.8444 8.83341 16.8567 8.75169 16.8517C8.61129 16.8554 8.47378 16.8113 8.36169 16.7267C8.25493 16.6394 8.18235 16.5172 8.15669 16.3817C8.14615 16.3268 8.14279 16.2708 8.14669 16.215V12.2684Z" fill="#FFE600"/>
<path d="M11.4317 11.4867C11.4689 11.365 11.5473 11.2601 11.6534 11.19C11.7663 11.1271 11.8943 11.0966 12.0234 11.1017H12.3167C12.4553 11.0975 12.5923 11.1309 12.7134 11.1984C12.8386 11.2863 12.928 11.4165 12.9651 11.565L14.4317 15.8184C14.4736 15.9267 14.507 16.0382 14.5317 16.1517C14.542 16.1995 14.5492 16.248 14.5534 16.2967C14.5542 16.3702 14.5399 16.4431 14.5112 16.5108C14.4825 16.5785 14.4401 16.6395 14.3867 16.69C14.3344 16.7439 14.2717 16.7864 14.2023 16.8151C14.1329 16.8437 14.0584 16.8579 13.9834 16.8567C13.8665 16.8692 13.7488 16.8417 13.6496 16.7788C13.5503 16.7158 13.4753 16.6211 13.4367 16.51L13.1234 15.5834H11.1667L10.8517 16.51C10.8149 16.6218 10.7405 16.7174 10.6411 16.7806C10.5418 16.8438 10.4236 16.8707 10.3067 16.8567C10.178 16.8622 10.0513 16.8227 9.94841 16.745C9.84982 16.6671 9.78337 16.5555 9.76175 16.4317C9.75328 16.3889 9.74937 16.3453 9.75008 16.3017C9.74897 16.2259 9.76023 16.1505 9.78341 16.0784C9.80508 15.9917 9.83508 15.9117 9.86508 15.8167L11.4317 11.4867ZM12.1667 12.475H12.1501L11.4334 14.7067H12.8567L12.1667 12.475Z" fill="#FFE600"/>
<path d="M14.7419 11.7317C14.7349 11.5634 14.7948 11.3992 14.9086 11.275C14.9672 11.2175 15.0373 11.173 15.1142 11.1443C15.1912 11.1155 15.2733 11.1033 15.3552 11.1083C15.4955 11.104 15.6329 11.1488 15.7436 11.235C15.8498 11.3218 15.9219 11.4434 15.9469 11.5783C15.9574 11.6332 15.9608 11.6893 15.9569 11.745V15.6933H17.9886C18.1335 15.6878 18.2768 15.7256 18.4002 15.8017C18.454 15.8361 18.5001 15.8813 18.5357 15.9343C18.5712 15.9874 18.5955 16.0472 18.6069 16.11C18.6153 16.1484 18.6208 16.1874 18.6236 16.2267C18.6273 16.3019 18.6128 16.3768 18.5815 16.4453C18.5502 16.5137 18.5029 16.5736 18.4436 16.62C18.3129 16.7157 18.1538 16.7645 17.9919 16.7583H15.4552C15.2942 16.7669 15.1343 16.7262 14.9969 16.6417C14.9348 16.5984 14.8824 16.5427 14.8428 16.4782C14.8032 16.4136 14.7774 16.3416 14.7669 16.2667C14.7521 16.1846 14.7432 16.1016 14.7402 16.0183L14.7419 11.7317Z" fill="#FFE600"/>
<path d="M18.7432 11.7317C18.7369 11.5635 18.7967 11.3996 18.9099 11.275C18.9682 11.2177 19.038 11.1732 19.1147 11.1445C19.1913 11.1158 19.2731 11.1035 19.3549 11.1084C19.4951 11.1037 19.6326 11.1486 19.7432 11.235C19.8504 11.3213 19.9231 11.4431 19.9482 11.5784C19.9592 11.6332 19.9632 11.6892 19.9598 11.745V13.5784L21.8682 11.3834C21.9382 11.3026 22.017 11.2299 22.1032 11.1667C22.1789 11.1191 22.2671 11.0953 22.3565 11.0984C22.4871 11.0964 22.615 11.1361 22.7215 11.2117C22.7735 11.2448 22.8182 11.2882 22.8529 11.3392C22.8876 11.3902 22.9115 11.4478 22.9232 11.5084C22.9232 11.5084 22.9232 11.53 22.9315 11.555C22.929 11.5716 22.929 11.5884 22.9315 11.605C22.933 11.6858 22.9135 11.7657 22.8748 11.8367C22.8354 11.91 22.7873 11.9783 22.7315 12.04L21.4815 13.405L22.9598 15.7384L23.0032 15.8084C23.0815 15.9174 23.1417 16.0384 23.1815 16.1667L23.1915 16.205C23.1897 16.2177 23.1897 16.2306 23.1915 16.2434C23.2 16.3302 23.1881 16.4178 23.1565 16.4992C23.1249 16.5805 23.0747 16.6533 23.0098 16.7117C22.882 16.807 22.7259 16.8569 22.5665 16.8534C22.4613 16.8577 22.3568 16.8347 22.2632 16.7867C22.165 16.7172 22.0835 16.6267 22.0248 16.5217L20.6232 14.2667L19.9565 14.9634V16.2217C19.9631 16.3904 19.9032 16.5549 19.7898 16.68C19.7311 16.7374 19.6611 16.7819 19.5842 16.8106C19.5072 16.8393 19.4251 16.8516 19.3432 16.8467C19.2033 16.8503 19.0664 16.8062 18.9549 16.7217C18.8475 16.6348 18.7748 16.5125 18.7499 16.3767C18.7393 16.3218 18.736 16.2658 18.7399 16.21L18.7432 11.7317Z" fill="#FFE600"/>
</svg>
