<svg width="16" height="16" viewBox="0 0 16 16" fill="none" xmlns="http://www.w3.org/2000/svg">
<path fill-rule="evenodd" clip-rule="evenodd" d="M4 0C2.93913 0 1.92172 0.413765 1.17157 1.15027C0.421427 1.88678 0 2.88569 0 3.92727V11.7818C0 12.8234 0.421427 13.8223 1.17157 14.5588C1.92172 15.2953 2.93913 15.7091 4 15.7091H12C13.0609 15.7091 14.0783 15.2953 14.8284 14.5588C15.5786 13.8223 16 12.8234 16 11.7818V3.92727C16 2.88569 15.5786 1.88678 14.8284 1.15027C14.0783 0.413765 13.0609 0 12 0H4ZM10.984 6.82088C11.0559 6.74558 11.1119 6.65713 11.149 6.56056C11.186 6.464 11.2033 6.36121 11.1999 6.25808C11.1965 6.15495 11.1724 6.05349 11.129 5.95949C11.0857 5.86549 11.0239 5.7808 10.9472 5.71025C10.8705 5.6397 10.7804 5.58467 10.6821 5.5483C10.5837 5.51193 10.479 5.49494 10.374 5.49829C10.2689 5.50165 10.1656 5.52529 10.0699 5.56785C9.97412 5.61042 9.88786 5.67108 9.816 5.74638L7.3496 8.33052L6.1312 7.2678C5.97157 7.13751 5.7666 7.07324 5.5596 7.08858C5.3526 7.10391 5.15977 7.19765 5.02186 7.34998C4.88394 7.50231 4.81174 7.70131 4.8205 7.90495C4.82926 8.10858 4.91829 8.3009 5.0688 8.44127L6.8688 10.0122C7.02455 10.148 7.22812 10.2188 7.43623 10.2096C7.64434 10.2004 7.84058 10.1118 7.9832 9.9627L10.9832 6.82088H10.984Z" fill="#4AD189"/>
</svg>
