<svg width="39" height="27" viewBox="0 0 39 27" fill="none" xmlns="http://www.w3.org/2000/svg">
<g clip-path="url(#clip0_241_286)">
<path d="M36.8717 5.1957C37.3654 5.1957 37.8371 5.18471 38.2979 5.1957C38.7806 5.20668 39 5.41539 39 5.89871C39 8.18349 39 10.4793 39 12.764C39 13.2803 38.8135 13.4671 38.2869 13.511C36.8827 13.6099 35.8295 14.7083 35.8186 16.0924C35.8076 17.4764 36.8388 18.5749 38.265 18.6957C38.7806 18.7396 38.9781 18.9374 38.9781 19.4536C38.9781 21.7164 38.9781 23.9793 38.9781 26.2421C38.9781 26.7913 38.7477 27 38.1882 27C25.7367 27 13.2743 27 0.822785 27C0.219409 27 0.0109705 26.7913 0 26.1872C0 23.9683 0 21.7494 0 19.5195C0 18.9154 0.175527 18.7287 0.767933 18.6957C2.12827 18.6078 3.17046 17.5094 3.18143 16.1583C3.20338 14.7742 2.19409 13.6428 0.822785 13.522C0.175527 13.4561 0.0438819 13.3243 0.0438819 12.6762C0.0438819 10.4573 0.0438819 8.23842 0.0438819 6.00855C0.0438819 5.41539 0.164557 5.27259 0.767933 5.18471C6.23122 4.36087 11.6945 3.53703 17.1578 2.72418C22.2042 1.96624 27.2506 1.20831 32.2861 0.450375C33.2515 0.307576 34.2059 0.164777 35.1713 0.0219784C35.9283 -0.0878671 36.0928 0.054932 36.1916 0.801881C36.3781 2.17495 36.5865 3.53703 36.784 4.9101C36.8059 4.99798 36.8388 5.07487 36.8717 5.1957ZM37.892 6.37104C35.0177 6.37104 32.2093 6.37104 29.4118 6.37104C29.4008 6.42597 29.3899 6.45892 29.3899 6.48089C29.3899 6.88732 29.3899 7.30473 29.3899 7.71116C29.3899 8.22743 29.1924 8.48008 28.8084 8.49106C28.4135 8.50205 28.216 8.2494 28.216 7.73313C28.216 7.28276 28.216 6.83239 28.216 6.38203C19.1983 6.38203 10.2354 6.38203 1.25063 6.38203C1.25063 8.40318 1.25063 10.3914 1.25063 12.4016C1.34937 12.4235 1.43713 12.4565 1.53587 12.4784C3.24726 12.9288 4.41013 14.4007 4.41013 16.1363C4.41013 17.8389 3.24726 19.3218 1.54684 19.7502C1.29451 19.8161 1.22869 19.915 1.22869 20.1676C1.23966 21.9581 1.22869 23.7596 1.23966 25.5501C1.23966 25.6379 1.25063 25.7368 1.2616 25.8466C10.2354 25.8466 19.1873 25.8466 28.1722 25.8466C28.1722 25.3413 28.1612 24.858 28.1722 24.3857C28.1831 23.9353 28.4903 23.6497 28.8743 23.7266C29.2473 23.8035 29.3679 24.0781 29.3679 24.4296C29.3679 24.902 29.3679 25.3743 29.3679 25.8466C32.2312 25.8466 35.0287 25.8466 37.8481 25.8466C37.8481 23.8365 37.8481 21.8483 37.8481 19.8601C37.7713 19.8271 37.6945 19.7942 37.6177 19.7722C35.8405 19.3108 34.7435 17.9268 34.7435 16.1033C34.7325 14.4007 35.8844 12.9068 37.5738 12.4675C37.8481 12.4016 37.9249 12.2917 37.9139 12.0281C37.903 10.9406 37.9139 9.86413 37.9139 8.77666C37.892 7.99676 37.892 7.19488 37.892 6.37104ZM26.1536 2.55941C20.3831 3.42719 14.6456 4.28398 8.91899 5.14078C8.91899 5.15176 8.91899 5.17373 8.92996 5.18471C17.838 5.18471 26.757 5.18471 35.6869 5.18471C35.4895 3.85558 35.292 2.55941 35.0945 1.24126C32.4726 1.62572 29.9055 2.01018 27.3165 2.39464C27.3823 2.88894 27.4481 3.31734 27.503 3.75672C27.5688 4.25103 27.4262 4.52564 27.0641 4.59155C26.6802 4.65746 26.4278 4.42678 26.3511 3.93248C26.2852 3.48211 26.2194 3.04273 26.1536 2.55941Z" fill="white"/>
<path d="M14.5908 14.8951C12.3199 14.8951 10.049 14.8951 7.77813 14.8951C7.62454 14.8951 7.47096 14.9061 7.32834 14.8621C7.03214 14.7852 6.85661 14.5765 6.87855 14.258C6.88952 13.9614 7.05408 13.7746 7.35028 13.7197C7.48193 13.6978 7.62454 13.6978 7.75619 13.6978C12.3089 13.6978 16.8617 13.6978 21.4144 13.6978C21.5461 13.6978 21.6887 13.6978 21.8203 13.7197C22.1165 13.7746 22.2811 13.9724 22.2921 14.258C22.303 14.5765 22.1385 14.7852 21.8423 14.8621C21.6997 14.8951 21.5461 14.8951 21.3925 14.8951C19.1326 14.8951 16.8617 14.8951 14.5908 14.8951Z" fill="white"/>
<path d="M14.5907 21.0025C16.8725 21.0025 19.1544 21.0025 21.4472 21.0025C21.6008 21.0025 21.7544 21.0025 21.897 21.0464C22.1822 21.1233 22.3687 21.354 22.3029 21.6286C22.2481 21.8263 22.0506 22.0241 21.8751 22.1559C21.7763 22.2328 21.5898 22.1998 21.4362 22.1998C16.8835 22.1998 12.3308 22.1998 7.77801 22.1998C7.65734 22.1998 7.52569 22.1998 7.40502 22.1778C7.0759 22.1229 6.8894 21.9252 6.8894 21.5847C6.8894 21.2551 7.09784 21.0574 7.41599 21.0025C7.53666 20.9805 7.65734 20.9915 7.78898 20.9915C10.0489 21.0025 12.3198 21.0025 14.5907 21.0025Z" fill="white"/>
<path d="M14.5907 17.3665C16.8616 17.3665 19.1324 17.3665 21.4033 17.3665C21.524 17.3665 21.6557 17.3555 21.7763 17.3775C22.1164 17.4105 22.2919 17.6192 22.3139 17.9487C22.3358 18.2672 22.0945 18.5089 21.7654 18.5419C21.6557 18.5528 21.5459 18.5528 21.4362 18.5528C16.8835 18.5528 12.3308 18.5528 7.77801 18.5528C7.65734 18.5528 7.52569 18.5638 7.40502 18.5419C7.0759 18.4979 6.8894 18.2892 6.8894 17.9597C6.8894 17.6301 7.08687 17.4214 7.41599 17.3885C7.64637 17.3665 7.87675 17.3775 8.1181 17.3775C10.2683 17.3665 12.4295 17.3665 14.5907 17.3665Z" fill="white"/>
<path d="M11.0253 11.2043C9.88441 11.2043 8.75445 11.2043 7.61352 11.2043C7.13082 11.2043 6.86753 10.9956 6.8785 10.6221C6.88947 10.2596 7.16374 10.0509 7.62449 10.0509C9.89538 10.0509 12.1663 10.0509 14.4372 10.0509C14.9308 10.0509 15.1722 10.2486 15.1722 10.6221C15.1612 10.9956 14.9089 11.1933 14.4262 11.1933C13.2962 11.2043 12.1553 11.2043 11.0253 11.2043Z" fill="white"/>
<path d="M29.3459 12.786C29.3459 13.3572 29.3569 13.9393 29.3459 14.5105C29.335 14.9939 29.1265 15.2355 28.7535 15.2465C28.3805 15.2465 28.1611 14.9829 28.1611 14.5215C28.1611 13.3572 28.1611 12.1928 28.1611 11.0284C28.1611 10.5671 28.3915 10.3035 28.7535 10.3035C29.1265 10.3035 29.3459 10.5561 29.3459 11.0284C29.3569 11.6106 29.3459 12.2038 29.3459 12.786Z" fill="white"/>
<path d="M29.3459 19.4536C29.3459 20.0468 29.3459 20.629 29.3459 21.2222C29.3459 21.6945 29.1156 21.9691 28.7645 21.9691C28.3915 21.9801 28.1611 21.6945 28.1611 21.2002C28.1611 20.0468 28.1611 18.9044 28.1611 17.751C28.1611 17.2897 28.3915 17.0151 28.7426 17.0041C29.1156 16.9931 29.3459 17.2787 29.3459 17.773C29.3569 18.3222 29.3459 18.8934 29.3459 19.4536Z" fill="white"/>
</g>
<defs>
<clipPath id="clip0_241_286">
<rect width="39" height="27" fill="white"/>
</clipPath>
</defs>
</svg>
