<svg width="22" height="24" viewBox="0 0 22 24" fill="none" xmlns="http://www.w3.org/2000/svg">
<path d="M19.3027 18.5242C20.9781 16.5583 22 14.0004 22 11.1995C22 5.02479 17.0651 0 11.0449 0C5.0248 0 0 5.02479 0 11.1995C0 17.3743 4.93494 22.3991 10.9551 22.3991C13.1377 22.3991 15.1687 21.7411 16.8819 20.6201L19.1765 23.424C19.4873 23.8037 19.9337 24 20.384 24C21.4324 24 21.9543 23.087 21.9543 22.3996C21.9543 22.0384 21.8349 21.6751 21.59 21.3761L19.3027 18.5242ZM10.9993 19.1992C6.66732 19.1992 3.14265 15.6103 3.14265 11.1995C3.14265 6.78872 6.66732 3.24486 10.9993 3.24486C15.3312 3.24486 18.8559 6.83371 18.8559 11.1995C18.8559 13.01 18.2396 14.6634 17.2394 16.0053L13.7785 11.7745C13.4673 11.3947 13.0204 11.198 12.5701 11.198C11.5257 11.198 11.0007 12.109 11.0007 12.799C11.0007 13.1601 11.1202 13.5234 11.365 13.8224L14.8774 18.1137C13.7294 18.7842 12.4135 19.1992 10.9993 19.1992Z" fill="#4AD189"/>
</svg>
