<svg width="24" height="24" viewBox="0 0 24 24" fill="none" xmlns="http://www.w3.org/2000/svg">
<path d="M20.1146 20.8387C18.3988 22.4145 16.2612 23.4567 13.9627 23.8381C11.6643 24.2195 9.30445 23.9236 7.17139 22.9866C5.03834 22.0496 3.22432 20.512 1.95083 18.5615C0.677343 16.611 -0.000521732 14.332 3.01291e-07 12.0028H1.99967C1.99952 14.016 2.60753 15.9824 3.74406 17.6445C4.88059 19.3065 6.49268 20.5867 8.36922 21.3174C10.2458 22.0481 12.2993 22.1952 14.2609 21.7396C16.2225 21.2839 18.0007 20.2467 19.3628 18.7637H16.4573C16.1921 18.7637 15.9378 18.6584 15.7503 18.4709C15.5628 18.2835 15.4574 18.0292 15.4574 17.7641C15.4574 17.499 15.5628 17.2448 15.7503 17.0574C15.9378 16.8699 16.1921 16.7646 16.4573 16.7646H21.1145C21.3797 16.7646 21.634 16.8699 21.8215 17.0574C22.009 17.2448 22.1143 17.499 22.1143 17.7641V22.416C22.1143 22.6811 22.009 22.9354 21.8215 23.1228C21.634 23.3103 21.3797 23.4156 21.1145 23.4156C20.8493 23.4156 20.595 23.3103 20.4075 23.1228C20.22 22.9354 20.1146 22.6811 20.1146 22.416V20.8367V20.8387ZM4.63323 5.24383H7.53874C7.80392 5.24383 8.05823 5.34914 8.24573 5.53659C8.43324 5.72404 8.53858 5.97828 8.53858 6.24338C8.53858 6.50847 8.43324 6.76271 8.24573 6.95016C8.05823 7.13761 7.80392 7.24292 7.53874 7.24292H2.87952C2.61435 7.24292 2.36004 7.13761 2.17253 6.95016C1.98503 6.76271 1.87969 6.50847 1.87969 6.24338V1.58749C1.87969 1.3224 1.98503 1.06816 2.17253 0.880706C2.36004 0.693255 2.61435 0.587946 2.87952 0.587946C3.14469 0.587946 3.399 0.693255 3.58651 0.880706C3.77401 1.06816 3.87935 1.3224 3.87935 1.58749V3.16677C5.59498 1.5891 7.73316 0.545213 10.0326 0.162694C12.3321 -0.219824 14.6932 0.0755914 16.8274 1.01284C18.9616 1.95008 20.7765 3.48857 22.0503 5.44027C23.3241 7.39197 24.0016 9.67236 24 12.0028H22.0003C22.0005 9.98921 21.3924 8.02255 20.2556 6.36037C19.1188 4.69819 17.5064 3.418 15.6295 2.68746C13.7526 1.95693 11.6988 1.81012 9.73699 2.26627C7.77523 2.72242 5.997 3.76025 4.63523 5.24383H4.63323Z" fill="black"/>
</svg>
