<svg width="15" height="15" viewBox="0 0 15 15" fill="none" xmlns="http://www.w3.org/2000/svg">
<path fill-rule="evenodd" clip-rule="evenodd" d="M0.876953 7.5C0.876953 5.74347 1.57473 4.05889 2.81678 2.81683C4.05884 1.57478 5.74342 0.877001 7.49995 0.877001C9.25648 0.877001 10.9411 1.57478 12.1831 2.81683C13.4252 4.05889 14.123 5.74347 14.123 7.5C14.123 9.25653 13.4252 10.9411 12.1831 12.1832C10.9411 13.4252 9.25648 14.123 7.49995 14.123C5.74342 14.123 4.05884 13.4252 2.81678 12.1832C1.57473 10.9411 0.876953 9.25653 0.876953 7.5ZM7.49995 1.827C5.99538 1.827 4.55243 2.42469 3.48854 3.48858C2.42464 4.55248 1.82695 5.99543 1.82695 7.5C1.82695 9.00457 2.42464 10.4475 3.48854 11.5114C4.55243 12.5753 5.99538 13.173 7.49995 13.173C9.00453 13.173 10.4475 12.5753 11.5114 11.5114C12.5753 10.4475 13.173 9.00457 13.173 7.5C13.173 5.99543 12.5753 4.55248 11.5114 3.48858C10.4475 2.42469 9.00453 1.827 7.49995 1.827ZM8.24995 10.5C8.24995 10.6989 8.17094 10.8897 8.03028 11.0303C7.88963 11.171 7.69887 11.25 7.49995 11.25C7.30104 11.25 7.11028 11.171 6.96962 11.0303C6.82897 10.8897 6.74995 10.6989 6.74995 10.5C6.74995 10.3011 6.82897 10.1103 6.96962 9.96967C7.11028 9.82902 7.30104 9.75 7.49995 9.75C7.69887 9.75 7.88963 9.82902 8.03028 9.96967C8.17094 10.1103 8.24995 10.3011 8.24995 10.5ZM6.04995 6.25C6.04995 5.572 6.63495 4.925 7.49995 4.925C8.36495 4.925 8.94995 5.572 8.94995 6.25C8.94995 6.741 8.67995 6.992 8.21395 7.275C8.16295 7.307 8.10295 7.341 8.03795 7.379C7.84253 7.48696 7.65415 7.6072 7.47395 7.739C7.23195 7.927 6.94995 8.232 6.94995 8.7C6.94942 8.84587 7.00686 8.98598 7.10963 9.0895C7.2124 9.19302 7.35208 9.25147 7.49795 9.252C7.64382 9.25253 7.78393 9.19509 7.88745 9.09232C7.99097 8.98955 8.04942 8.84987 8.04995 8.704C8.07788 8.66624 8.11164 8.63316 8.14995 8.606C8.25195 8.527 8.36495 8.462 8.51595 8.374C8.59395 8.329 8.68295 8.277 8.78595 8.215C9.31995 7.89 10.05 7.354 10.05 6.25C10.05 4.928 8.93495 3.825 7.49995 3.825C6.06495 3.825 4.94995 4.928 4.94995 6.25C4.94995 6.39587 5.0079 6.53576 5.11104 6.63891C5.21419 6.74205 5.35408 6.8 5.49995 6.8C5.64582 6.8 5.78572 6.74205 5.88886 6.63891C5.99201 6.53576 6.04995 6.39587 6.04995 6.25Z" fill="#727272"/>
</svg>
